<svg width="30" height="30" viewBox="0 0 30 30" fill="none" xmlns="http://www.w3.org/2000/svg">
<circle cx="15" cy="15" r="15" fill="white"/>
<path d="M17.5731 11.7763C11.663 11.9987 8.5796 17.424 7.62779 20.5467C7.55789 20.7761 7.73367 21 7.97343 21C8.11881 21 8.25073 20.9121 8.31264 20.7806C10.5315 16.0658 15.5301 15.2364 17.6356 15.4229C17.8189 15.4392 17.9501 15.5967 17.9501 15.7807V17.3435C17.9501 17.675 18.3487 17.8435 18.5865 17.6125L21.5233 14.7588C21.6544 14.6315 21.6746 14.4284 21.5713 14.2778L18.6343 9.99725C18.4259 9.69344 17.9501 9.84096 17.9501 10.2094V11.3942C17.9501 11.6014 17.78 11.7685 17.5731 11.7763Z" fill="#9647FF" stroke="#9647FF" stroke-width="1.5" stroke-linecap="round" stroke-linejoin="round"/>
</svg>
