<svg width="30" height="30" viewBox="0 0 30 30" fill="none" xmlns="http://www.w3.org/2000/svg">
<circle cx="15" cy="15" r="15" fill="#9647FF"/>
<path fill-rule="evenodd" clip-rule="evenodd" d="M14.8027 16.7081C13.8918 16.7081 11.6548 16.711 11.6548 16.711V14.4925H17.2469C17.6364 17.1769 16.4615 21.2035 11.6548 21.2035C8.43894 21.2035 5.83203 18.6954 5.83203 15.6017C5.83203 12.508 8.43894 10 11.6548 10C13.1637 10 14.5386 10.5522 15.573 11.458C14.7714 12.1863 14.5144 12.4639 14.2961 12.6998C14.1825 12.8225 14.0794 12.9339 13.9155 13.0915C13.3171 12.6155 12.6648 12.274 11.6548 12.274C9.74439 12.274 8.25337 13.7639 8.25337 15.6017C8.25337 17.4396 9.74439 18.9295 11.6548 18.9295C13.5425 18.9295 14.3095 18.1463 14.8027 16.7081ZM22.1456 12.6602V14.6014H24.1634V15.9879H22.1456V17.9846H20.7043V15.9879H18.6289V14.6014H20.7043V12.6602H22.1456Z" fill="white"/>
</svg>
