<svg width="7" height="5" viewBox="0 0 25 25" fill="none" xmlns="http://www.w3.org/2000/svg">
<path fill-rule="evenodd" clip-rule="evenodd" d="M12.2338 0.5C16.179 0.5 19.3699 3.63 19.3699 7.5C19.3699 12.75 12.2338 20.5 12.2338 20.5C12.2338 20.5 5.09766 12.75 5.09766 7.5C5.09766 3.63 8.28852 0.5 12.2338 0.5ZM7.13655 7.5C7.13655 10.35 10.1133 14.71 12.2338 17.38C14.395 14.69 17.331 10.38 17.331 7.5C17.331 4.74 15.0474 2.5 12.2338 2.5C9.4201 2.5 7.13655 4.74 7.13655 7.5ZM12.2338 10C10.8262 10 9.68516 8.88071 9.68516 7.5C9.68516 6.11929 10.8262 5 12.2338 5C13.6413 5 14.7824 6.11929 14.7824 7.5C14.7824 8.88071 13.6413 10 12.2338 10Z" fill="white"/>
</svg>
