<svg width="24" height="25" viewBox="0 0 24 25" fill="none" xmlns="http://www.w3.org/2000/svg">
<path fill-rule="evenodd" clip-rule="evenodd" d="M7 3.5H17C17.55 3.5 18 3.95 18 4.5V6.5C18 7.05 17.55 7.5 17 7.5H7C6.45 7.5 6 7.05 6 6.5V4.5C6 3.95 6.45 3.5 7 3.5ZM5 8.5H19C20.66 8.5 22 9.84 22 11.5V15.5C22 16.6 21.1 17.5 20 17.5H18V19.5C18 20.6 17.1 21.5 16 21.5H8C6.9 21.5 6 20.6 6 19.5V17.5H4C2.9 17.5 2 16.6 2 15.5V11.5C2 9.84 3.34 8.5 5 8.5ZM9 19.5H15C15.55 19.5 16 19.05 16 18.5V14.5H8V18.5C8 19.05 8.45 19.5 9 19.5ZM19 12.5C18.45 12.5 18 12.05 18 11.5C18 10.95 18.45 10.5 19 10.5C19.55 10.5 20 10.95 20 11.5C20 12.05 19.55 12.5 19 12.5Z" fill="white"/>
</svg>
