<svg width="38" height="34" viewBox="0 0 38 34" fill="none" xmlns="http://www.w3.org/2000/svg">
<path d="M15.4321 22.9877L20.4691 24.6667C20.4691 24.6667 33.0617 22.1482 34.7407 22.1482C36.4198 22.1482 36.4198 23.8272 34.7407 25.5062C33.0617 27.1852 27.1852 32.2223 22.1481 32.2223C17.1111 32.2223 13.7531 29.7037 10.3951 29.7037C7.03704 29.7037 2 29.7037 2 29.7037" stroke="#6A4BFF" stroke-width="3" stroke-linecap="round" stroke-linejoin="round"/>
<path d="M2 19.6297C3.67901 17.9506 7.03704 15.4321 10.3951 15.4321C13.7531 15.4321 21.7284 18.7902 22.9877 20.4692C24.2469 22.1482 20.4691 24.6667 20.4691 24.6667" stroke="#6A4BFF" stroke-width="3" stroke-linecap="round" stroke-linejoin="round"/>
<path d="M12.0742 10.3951V3.67901C12.0742 2.75172 12.8259 2 13.7532 2H33.9014C34.8287 2 35.5804 2.75172 35.5804 3.67901V17.1111" stroke="#6A4BFF" stroke-width="3" stroke-linecap="round" stroke-linejoin="round"/>
<path d="M28.024 2H19.6289V9.55556H28.024V2Z" stroke="#6A4BFF" stroke-width="3" stroke-linecap="round" stroke-linejoin="round"/>
</svg>
